<svg width="974" height="974" xmlns="http://www.w3.org/2000/svg" xmlns:xlink="http://www.w3.org/1999/xlink" overflow="hidden"><defs><clipPath id="clip0"><path d="M-592-182 382-182 382 792-592 792Z" fill-rule="evenodd" clip-rule="evenodd"/></clipPath></defs><g clip-path="url(#clip0)" transform="translate(592 182)"><path d="M-590.5 305.5C-590.5 37.0896-372.91-180.5-104.5-180.5 163.91-180.5 381.5 37.0896 381.5 305.5 381.5 573.91 163.91 791.5-104.5 791.5-372.91 791.5-590.5 573.91-590.5 305.5Z" stroke="#47CFFF" stroke-width="1.33333" stroke-miterlimit="8" fill="#47CFFF" fill-rule="evenodd"/><path d="M-329.5 155.945-146.72 130.738-146.72 307.346-329.5 307.346-329.5 155.945ZM-329.5 479.095-146.72 504.263-146.72 329.845-329.5 329.845-329.5 479.095ZM-126.61 506.97 116.5 540.5 116.5 329.845-126.61 329.845-126.61 506.97ZM-126.61 128.03-126.61 307.346 116.5 307.346 116.5 94.5001-126.61 128.03Z" stroke="#FCFCFC" stroke-linejoin="round" stroke-miterlimit="10" fill="#FCFCFC" fill-rule="evenodd"/></g></svg>