<?xml version="1.0" standalone="no"?><!DOCTYPE svg PUBLIC "-//W3C//DTD SVG 1.1//EN" "http://www.w3.org/Graphics/SVG/1.1/DTD/svg11.dtd"><svg t="1597635462372" class="icon" viewBox="0 0 1024 1024" version="1.1" xmlns="http://www.w3.org/2000/svg" p-id="1832" xmlns:xlink="http://www.w3.org/1999/xlink" width="200" height="200"><defs><style type="text/css">* { text-shadow: transparent 0px 0px 0px, rgba(0, 0, 0, 0.68) 0px 0px 0px !important; }
</style></defs><path d="M818.346667 171.349333V170.666667h-257.024l0.341333 0.512L547.498667 256h-42.666667l-8.533333 50.986667L434.730667 170.666667h-256.853334L128 469.333333l-42.666667 256 170.666667 170.666667h213.333333l19.626667-128H512l128 128h213.333333l42.666667-554.666667zM768 213.333333l-21.333333 128h-78.165334L682.666667 256h-91.818667l7.168-42.666667z m-135.68 85.333334l-7.168 42.666666h-91.136l6.997333-42.666666zM384 213.333333l-7.168 42.666667H206.848l7.168-42.666667zM199.68 298.666667h212.650667l-14.165334 85.333333h341.333334l-49.664 298.666667H519.68l35.669333-213.333334H512l-14.165333 85.333334h-128L384 469.333333H341.333333l-7.168 42.666667h-85.333333L256 469.333333H171.349333z m-35.498667 213.333333h41.642667l-21.162667 128h128.170667l-7.168 42.666667H135.68zM320 597.333333H235.008l6.997333-42.666666h85.162667z" fill="#0e932e" p-id="1833"></path></svg>